<svg width="61" height="60" viewBox="0 0 61 60" fill="none" xmlns="http://www.w3.org/2000/svg">
<path d="M18 40C14.8807 40 11.8891 38.8147 9.68346 36.7049C7.47777 34.5952 6.23863 31.7337 6.23863 28.75C6.23863 25.7663 7.47777 22.9048 9.68346 20.795C11.8891 18.6853 14.8807 17.5 18 17.5C18.7367 14.2179 20.8919 11.3337 23.9915 9.48178C27.091 7.62985 30.881 6.96195 34.5278 7.62499C38.1745 8.28803 41.3792 10.2277 43.4369 13.0173C45.4946 15.8069 46.2367 19.2179 45.5 22.5H48C50.3206 22.5 52.5462 23.4219 54.1872 25.0628C55.8281 26.7037 56.75 28.9293 56.75 31.25C56.75 33.5706 55.8281 35.7962 54.1872 37.4372C52.5462 39.0781 50.3206 40 48 40H18Z" stroke="#0098FF" stroke-width="2.75" stroke-linecap="round" stroke-linejoin="round"/>
<path d="M13 50H48" stroke="#0098FF" stroke-width="2.75" stroke-linecap="round" stroke-linejoin="round"/>
</svg>
