<svg width="61" height="60" viewBox="0 0 61 60" fill="none" xmlns="http://www.w3.org/2000/svg">
<path d="M30.5 52.5C42.9264 52.5 53 42.4264 53 30C53 17.5736 42.9264 7.5 30.5 7.5C18.0736 7.5 8 17.5736 8 30C8 42.4264 18.0736 52.5 30.5 52.5Z" stroke="#0098FF" stroke-width="2.75" stroke-linecap="round" stroke-linejoin="round"/>
<path d="M30.5 52.5C36.0228 52.5 40.5 42.4264 40.5 30C40.5 17.5736 36.0228 7.5 30.5 7.5C24.9772 7.5 20.5 17.5736 20.5 30C20.5 42.4264 24.9772 52.5 30.5 52.5Z" stroke="#0098FF" stroke-width="2.75" stroke-linecap="round" stroke-linejoin="round"/>
<path d="M8 30C8 35.5228 18.0736 40 30.5 40C42.9264 40 53 35.5228 53 30C53 24.4772 42.9264 20 30.5 20C18.0736 20 8 24.4772 8 30Z" stroke="#0098FF" stroke-width="2.75" stroke-linecap="round" stroke-linejoin="round"/>
</svg>
