<svg width="61" height="60" viewBox="0 0 61 60" fill="none" xmlns="http://www.w3.org/2000/svg">
<path d="M45.5 10H15.5C11.3579 10 8 13.3579 8 17.5V22.5C8 26.6421 11.3579 30 15.5 30H45.5C49.6421 30 53 26.6421 53 22.5V17.5C53 13.3579 49.6421 10 45.5 10Z" stroke="#0098FF" stroke-width="2.75" stroke-linecap="round" stroke-linejoin="round"/>
<path d="M45.5 30H15.5C11.3579 30 8 33.3579 8 37.5V42.5C8 46.6421 11.3579 50 15.5 50H45.5C49.6421 50 53 46.6421 53 42.5V37.5C53 33.3579 49.6421 30 45.5 30Z" stroke="#0098FF" stroke-width="2.75" stroke-linecap="round" stroke-linejoin="round"/>
<path d="M18 20V20.025" stroke="#0098FF" stroke-width="2.75" stroke-linecap="round" stroke-linejoin="round"/>
<path d="M18 40V40.025" stroke="#0098FF" stroke-width="2.75" stroke-linecap="round" stroke-linejoin="round"/>
</svg>
